<svg id="bigmoney" xmlns="http://www.w3.org/2000/svg" viewBox="0 0 99.48 79.17"><defs><style>.cls-1{fill:#f7c614;}.cls-2{fill:#ef9d2d;}.cls-3{fill:#e28421;}.cls-4{fill:#d1160e;}.cls-5{fill:#f4db7a;}.cls-6{fill:#fad14f;}.cls-7{fill:#680b0c;}.cls-8{fill:#5e0c0a;}.cls-9{fill:#74270d;}.cls-10{fill:#8d3a0c;}.cls-11{fill:#af131e;}.cls-12{fill:#f4b310;}</style></defs><title>bigmoney</title><g id="moneymove"><path class="cls-1" d="M0,31.92S.14,59.06,16.31,69.19c0,0,11.11,9.28,21.8,10H63.28S84.66,72,90.84,59.48c0,0,9.43-15.32,8.58-27.56H97V29.81H81.56S76.78,15.33,59.48,7.88h-20s-21,8.71-21.94,21.65L0,29.67Z"/><path class="cls-2" d="M3.94,39.66S5.77,66.23,27.84,75l12.38,4.22H61L74.72,74S91.59,63.19,97,46.29v-7.9S83.53,52.17,64,53.72l-5.2.14.28,1.55L39.8,55.27,39.37,54,27.7,53.44l-.56-1.83-5.91-.28V49.64l-5.34-.7Z"/><path class="cls-3" d="M9.7,44.3S25.59,54.56,39.52,55.41l19.82.7V53.58H71s17.43-6.33,18-9.28L67.5,51.75l-35.86-.14S12.23,46.41,9.7,44.3Z"/><path class="cls-4" d="M17.58,29.53H31.64s15.33-17.86,36,0l13.92.28V25.7S67.92,7,49.36,7.88C49.36,7.88,27.42,6.33,17.58,29.53Z"/><polygon class="cls-5" points="85.36 3.52 85.36 5.91 83.53 5.91 83.53 7.88 81.56 7.85 81.56 9.56 85.36 9.56 85.36 14.2 87.05 14.2 87.05 9.98 90.98 10.13 90.98 7.88 89.02 7.88 89.02 6.33 87.19 5.91 87.19 3.52 85.36 3.52"/><polygon class="cls-5" points="14.06 1.83 15.47 1.83 15.47 5.91 14.06 5.91 14.06 7.85 17.58 7.85 17.58 0 14.06 0 14.06 1.83"/><polygon class="cls-5" points="19.69 0 19.69 7.85 23.91 7.85 23.91 6.05 21.8 5.77 21.8 2.25 23.91 2.11 23.91 0.56 19.69 0"/><path class="cls-6" d="M5.91,14.2v1.27H3.66V18H2.39v.83H4.78l.42,2.54H7.45V18.83H9.7v-3.5s-1,.84-1.4.56-.71-1.69-.71-1.69Z"/><polygon class="cls-7" points="43.88 59.77 43.88 61.17 41.91 61.17 41.91 63 45.42 63 45.42 59.77 43.88 59.77"/><polygon class="cls-8" points="41.91 69.05 47.39 69.05 47.39 75.66 51.47 75.66 51.47 69.05 58.22 69.05 58.22 67.5 51.75 67.5 51.47 61.38 47.95 61.38 47.53 67.08 41.91 66.94 41.91 69.05"/><polygon class="cls-8" points="43.66 71.58 43.66 73.41 41.91 73.41 41.91 75.66 45.98 75.66 45.42 71.58 43.66 71.58"/><polygon class="cls-9" points="53.3 59.77 53.86 63 57.52 63 57.52 61.38 55.41 61.38 55.41 59.77 53.3 59.77"/><polygon class="cls-10" points="53.3 71.58 54 75.66 57.52 75.66 57.52 73.62 55.41 73.62 55.41 71.02 53.3 71.58"/><polygon class="cls-9" points="37.55 14.2 37.55 15.75 39.8 15.75 39.8 17.79 41.34 17.79 41.34 16 43.66 16 43.66 14.2 41.91 13.78 41.91 12.09 39.66 12.09 39.94 14.2 37.55 14.2"/><polygon class="cls-1" points="37.55 12.09 37.55 14.2 39.23 14.2 39.66 12.09 37.55 12.09"/><rect class="cls-1" x="37.55" y="15.75" width="2.25" height="2.04"/><rect class="cls-1" x="41.34" y="16" width="2.32" height="1.79"/><polygon class="cls-1" points="41.91 12.09 41.91 13.78 43.66 14.2 43.95 12.09 41.91 12.09"/><path class="cls-11" d="M49.55,7.88V21.37s13.87.43,17.81,8.44h14.2V25.73S71.69,6.47,49.55,7.88Z"/><path class="cls-12" d="M49.55,21.37l-.19,22.22H37.55V45h3.79v2.39h4.08v2.25H53.3v2h2.11v-2l15.75-.28V47.67S92.85,48.23,97,34.31v-.7l-17.81.14V35.3l-7.73.14-.71-4.08H67.26S66.91,25,49.55,21.37Z"/></g></svg>