<svg id="bottle" xmlns="http://www.w3.org/2000/svg" viewBox="0 0 91.54 97.31"><defs><style>.cls-1{fill:#d3cbcb;}.cls-2{fill:#f4801c;}.cls-3{fill:#8c1107;}.cls-4{fill:#f29918;}.cls-5{fill:#ea6f16;}.cls-6{fill:#e26110;}.cls-7{fill:#af131e;}.cls-8{fill:#d83032;}.cls-9{fill:#f7ae10;}.cls-10{fill:#f37c19;}.cls-11{fill:#851008;}</style></defs><title>bottle</title><g id="redwine"><path class="cls-1" d="M39.79,11.91s-25.6-.85-37.69,24c0,0-9.47,23.72,11.81,35.53H79.54s11.15-9.38,12-16V40S84.41,19,67.35,14c0,0-11.53-3.2-13.5-2.07Z"/><rect class="cls-2" x="41.85" width="9.94" height="3.94"/><polygon class="cls-3" points="37.72 3.94 37.72 8.06 39.79 8.06 39.79 23.91 51.79 23.91 51.79 7.97 53.66 7.88 53.66 3.94 37.72 3.94"/><polygon class="cls-4" points="35.85 25.59 35.85 29.72 57.6 29.72 57.6 25.97 55.63 25.59 55.54 23.91 37.72 23.91 37.72 25.78 35.85 25.59"/><path class="cls-3" d="M35.85,29.44S24.22,37,22.16,44.06v9.47H24l.18,5.72A26.58,26.58,0,0,0,13.91,71.44v9.94S20.1,96.09,35.85,96.84l22,.47S76.63,91,77.38,80.44V67.69l-8-8.44-.09-17.7s-5-10.14-13.5-12.11Z"/><polygon class="cls-5" points="45.69 69.19 45.77 71.44 47.76 71.44 47.76 69.66 45.69 69.19"/><rect class="cls-6" x="45.77" y="75.56" width="1.99" height="3.09"/><rect class="cls-6" x="45.65" y="81.47" width="2.11" height="3.75"/><path class="cls-7" d="M24.22,59.25s9.85,15.47,21,16.31v21.1S27,96,18.79,85.22A16.26,16.26,0,0,1,16,73.31S19.07,61.69,24.22,59.25Z"/><polygon class="cls-8" points="24.22 63.38 24.22 73.59 22.07 73.59 22.07 77.11 19.91 77.11 19.91 79.31 16.18 79.31 16.18 73.31 17.85 73.31 17.85 67.75 20.2 67.75 20.2 63.38 24.22 63.38"/><path class="cls-7" d="M45.77,31.78V61.69H34.07s-8.81-2.91-10-8.16l.18-13.47s6.66-10.15,13.5-8.28Z"/><polygon class="cls-8" points="25.91 41.55 32.01 41.55 32.01 39.84 34.07 39.84 34.07 38.06 36.04 38.06 36.04 33.75 37.72 33.75 37.72 31.78 34.19 31.78 34.19 33.38 31.82 33.38 31.82 35.63 29.85 35.63 29.85 37.5 27.88 37.5 27.88 39.38 25.91 39.38 25.91 41.55"/><path class="cls-9" d="M40,45.75s-14.43,8.06,0,14.16a26.3,26.3,0,0,0,6.85,1.78s10.69-.38,12.84-8c0,0-3.22-9.56-13.89-8Z"/><path class="cls-10" d="M45.77,45.75l-.08,13.5,8,.38s6.94-2.91,6-8.07C59.66,51.56,59,44.53,45.77,45.75Z"/><path class="cls-11" d="M45.77,49.78v1.78H43.91v2.07h1.86v1.78h1.61s-.37-1.78,0-1.78h2.44v-2H47.76V49.78Z"/></g></svg>