<svg id="cei" xmlns="http://www.w3.org/2000/svg" viewBox="0 0 89.86 79.42"><defs><style>.cls-1{fill:#7a0d0b;}.cls-2{fill:#a61215;}.cls-3{fill:#fff;opacity:0.95;}.cls-4{fill:#f7eac0;}.cls-5{font-size:40.41px;fill:#c2000b;font-family:AdobeSongStd-Light-GBpc-EUC-H, Adobe Song Std;}.cls-6{fill:#671211;}.cls-7{fill:#b8120e;}.cls-8{fill:#8c110c;}.cls-9{fill:#ec170b;}.cls-10{fill:#f31513;}.cls-11{fill:#face3f;}.cls-12{fill:#f6ca45;}</style></defs><title>cei</title><g id="kiki"><path class="cls-1" d="M22.79,21.94S14.58,26,15.33,28.61l0,45.09s2.23,5.72,6.19,5.72H61.82s10.36-.85,10.78-7.19V27.94a6.64,6.64,0,0,0-6.57-6Z"/><path class="cls-2" d="M25.61,23l-3.54,1.47H61.15a6.65,6.65,0,0,1,5.14,5.41V74.94h2.19L71,72.08V28a6.36,6.36,0,0,0-4.71-4.48L60.81,23Z"/><path class="cls-3" d="M17,29.64V74.09s2.27,3.78,5.47,3.86H60.81s4.89-2.09,4.89-4.48V29.33S63.93,25.69,61,25.08H21.65S17,27.55,17,29.64Z"/><path class="cls-4" d="M62.16,30l.51,41.21s-9.18,2.55-7.92,4.94H21.15L22.49,78H59.63l4.88-2.33L65.7,73V30.33Z"/><text class="cls-5" transform="translate(18.7 65.32) scale(1.09 1)">財</text><path class="cls-6" d="M17.06,2.88V8.93s-5.95,2-5.95,6c0,0-9.07-1.83-11.11,4.22v4.92S2.39,30,11,28.9L77.91,29V28s9.77,3,11.32-4.07l.63-.07v-4.5S86.2,10.46,78.19,16c0,0-1.9-5.9-6.19-7.09L71.86,3.3S70.88.21,68,0H20.43S17.06.91,17.06,2.88Z"/><path class="cls-7" d="M4.84,17s-3.29,3.93-1.75,6.18c0,0,2.46,7.25,7.6,1.76,0,0,4.29-5-.64-7.94Z"/><path class="cls-7" d="M78.82,18.71v5.41s5.2,5.27,8.09-.49V19.05S82.83,13.94,78.82,18.71Z"/><path class="cls-8" d="M6.19,19s-3.38,3.38.56,3.94v2h2V22.5l1.34.35h2v-2l-2,.07S9.77,17.79,6.19,19Z"/><path class="cls-8" d="M84.76,24.08S88,20.55,84,20.17l-.09-2-2,.1L82,20.68l-1.35-.29-2,.1.09,2,2-.16S81.23,25.44,84.76,24.08Z"/><path class="cls-9" d="M20,8.93H69V5.2S69.61,1.55,64.06,2l-41.26,0S19.55,3.62,20,5.43Z"/><polygon class="cls-10" points="16.95 10.9 16.95 12.73 14.98 12.73 14.98 14.91 12.8 14.91 12.8 19.05 14.87 19.05 14.87 24.12 74.88 24.12 74.88 14.91 72.91 14.91 72.91 10.9 16.95 10.9"/><path class="cls-11" d="M29.88,8.93v9.78s0,4.56,5.21,4.35H52.24s5.14-.85,4.85-4V10.9h-1l-.28-2H53s1.19,7.17-8,8c0,0-8.79,1.61-9.77-4.5A5.09,5.09,0,0,1,34.1,8.93Z"/><path class="cls-12" d="M39,10.9S36.21,13.64,41.27,15H46.2S51.61,12.87,48,10.9H45.63V9.84H40.71l-.07,1.06Z"/></g></svg>