<svg id="cococ" xmlns="http://www.w3.org/2000/svg" viewBox="0 0 63.81 69.7"><defs><style>.cls-1{fill:#7a0d0b;}.cls-2{fill:#a61215;}.cls-3{fill:#fff;opacity:0.95;}.cls-4{fill:#f7eac0;}.cls-5{font-size:49px;fill:#c2000b;font-family:AdobeSongStd-Light-GBpc-EUC-H, Adobe Song Std;}</style></defs><title>cococ</title><g id="coco"><path id="redboard" class="cls-1" d="M8.35,0S-.79,4.92.06,8.09L0,62.77S2.49,69.7,6.9,69.7H51.81s11.53-1,12-8.72V7.27S63.24.23,56.49,0Z"/><path id="redside" class="cls-2" d="M11.49,1.27,7.56,3.05h43.5a7.67,7.67,0,0,1,5.71,6.56V64.27h2.44L62,60.8V7.36a7.52,7.52,0,0,0-5.25-5.44l-6.09-.65Z"/><path id="whiteboard" class="cls-3" d="M1.93,9.33v53.9S4.46,67.83,8,67.92H50.68s5.44-2.53,5.44-5.44V9s-2-4.4-5.25-5.15H7.09S1.93,6.8,1.93,9.33Z"/><path class="cls-4" d="M52.18,9.8l.56,50s-10.22,3.09-8.81,6H6.52L8,67.92H49.37l5.42-2.82,1.33-3.18V10.17Z"/><text id="text" class="cls-5" transform="translate(3.81 52.61)">發</text></g></svg>