<svg id="Fan" xmlns="http://www.w3.org/2000/svg" viewBox="0 0 114.28 75.24"><defs><style>.cls-1{fill:#a3100b;}.cls-2{fill:#c62f34;}.cls-3{fill:#eb3337;}.cls-4{fill:#fff;}.cls-5{fill:#fbcc13;}</style></defs><title>fan</title><g id="fanboy"><path class="cls-1" d="M3.6,47.6H56v6.66s-3.61.73-4,3.3L52,59.3a4.81,4.81,0,0,0,1.85,2.37l0,.16h-3.1l.1,13.41H53l-.06-7.66h.57v7.65h2.17V67.56H56v7.68h2.2V67.6h.37v7.64h2.36V67.59h.37v7.65h2.17V61.84H60.35v-.17s2-1.32,2-2.47l0-1.68a4,4,0,0,0-1.74-2.39,5.65,5.65,0,0,0-1.66-.82h-.7l0-6.7h55.31l.76-.46V43.8s-.62-6.58-1.89-9.56c0,0-3.19-8.12-5.94-11.42,0,0-5.55-7.17-10-10.13A63.51,63.51,0,0,0,80.68,4.08S67.89-.07,61.45.07c0,0-9.24-.38-14.8.63A81.46,81.46,0,0,0,29.29,5.84S17.51,11.57,14.7,15.29c0,0-7.56,7.11-10.27,13.22,0,0-2.85,5.87-3.34,8.48L.35,40.85l-.35,3V47s0,.67,1.65.7Z"/><path class="cls-2" d="M4,35.05l-.92,3.31L2.5,41.52l-.32,2.67v1.66h34.1l.16-1.9a8.64,8.64,0,0,1,.91-2.78L33.57,39.8,5.87,30.38Z"/><path class="cls-3" d="M6.79,28.79,38.11,39.38s2.21-3.24,3.48-4.05L17.51,15.61l-1.9,1.69-2.95,2.95-2.5,3.1L6.79,28.62Z"/><path class="cls-2" d="M19.05,14.31,43.1,34.07a14.07,14.07,0,0,1,5-2.71l-13-25.8-5,2.07L26.72,9.35,23.91,11Z"/><path class="cls-3" d="M37.09,4.85,50.17,30.69s1.23-1,5.87-1V1.83S44.5,1.86,37.09,4.85Z"/><path class="cls-2" d="M58.11,1.83l.14,27.91a13.28,13.28,0,0,1,5.84,1L77.13,5A58.4,58.4,0,0,0,58.11,1.83Z"/><path class="cls-3" d="M79.14,5.56,66.06,31.4s4,1.23,4.89,2.67L83.57,23.94,95.2,14.35A58.05,58.05,0,0,0,79.14,5.56Z"/><path class="cls-2" d="M96.68,15.68l-24,19.65a8.65,8.65,0,0,1,3.27,4l31.57-10.62S102.49,20.06,96.68,15.68Z"/><path class="cls-3" d="M108.35,30.38,76.82,41.06s1.51,3,1.09,5l34.2-.21-.21-4.18S110.25,32.45,108.35,30.38Z"/><path class="cls-4" d="M69.12,43.6a9,9,0,0,1,.42,2.25H75.9s-.31-3.1-1.09-4.08Z"/><path class="cls-4" d="M66.8,40.22s1.4,1.51,1.37,1.79L74,40,72.67,38.2l-1.48-1.64Z"/><path class="cls-4" d="M62.79,37.62A9.23,9.23,0,0,1,65,38.88l.16.17,4.4-3.68s-3.37-2.58-4.37-2.27Z"/><path class="cls-4" d="M58.11,31.5v5.06a13.1,13.1,0,0,1,2.82.43l2.39-4.68A17.32,17.32,0,0,0,58.11,31.5Z"/><path class="cls-4" d="M51.33,33.07,53.4,37A10,10,0,0,1,56,36.56V31.5s-3.76.07-5.1.81Z"/><path class="cls-4" d="M44.68,35.4l4.4,3.48a20.43,20.43,0,0,1,2.25-1.12L49,32.87S45.77,34.17,44.68,35.4Z"/><path class="cls-4" d="M40.22,40.08,46.09,42s.95-1.54,1.48-1.72l-4.33-3.73A13.17,13.17,0,0,0,40.22,40.08Z"/><path class="cls-4" d="M38.43,45.85h6.25a4.62,4.62,0,0,1,.5-2l-5.56-2-.67.81-.35,1.86Z"/><path class="cls-5" d="M46.79,45.85H67.43a8.46,8.46,0,0,0-5.31-6.47,12.36,12.36,0,0,0-11.53.91A8.58,8.58,0,0,0,46.79,45.85Z"/><ellipse class="cls-5" cx="57.01" cy="58.36" rx="3.07" ry="2.51"/></g></svg>