<svg id="firework" xmlns="http://www.w3.org/2000/svg" viewBox="0 0 85.36 72.66"><defs><style>.cls-1{fill:#a3100b;}.cls-2{fill:#f8120d;}.cls-3{fill:#f2f91c;}</style></defs><title>firework</title><g id="bomb"><path class="cls-1" d="M30.52,32.91l6.37,5.15-2.62,1.88s-7.41,5-12.85,0l-1.69,1.4s3.12,2.33,5.51,2.56c0,0,4.8.44,7.82-1.07l3.2-1.59,2.35-1.77,5,4.08L9.56,71.3l1.55,1.36,68.2-55.74L85.36,0,64.59,4.83Z"/><polygon class="cls-2" points="33.61 33 45.19 42.28 53.25 35.53 34.92 31.69 33.61 33"/><polygon class="cls-2" points="36.75 30.38 55.13 34.13 60.05 29.91 41.77 26.2 36.75 30.38"/><polygon class="cls-2" points="43.69 24.8 61.92 28.5 66.89 24.42 48.4 20.58 43.69 24.8"/><polygon class="cls-2" points="50.44 19.13 68.72 22.92 73.73 18.8 55.29 14.95 50.44 19.13"/><polygon class="cls-2" points="57.28 13.55 75.61 17.3 76.73 16.31 65.34 6.89 57.28 13.55"/><polygon class="cls-2" points="67.45 6 77.72 14.48 82.08 2.67 67.45 6"/><path class="cls-3" d="M3.89,33.14s-.09,4.31,5.16,5.11c0,0,5.15.19,6.65-3.28,0,0,.52-1.5.33-1.83h-2.3s.33,3.14-3.75,3.19c0,0-3.93,0-3.7-3.19Z"/><path class="cls-3" d="M16.07,49.33s.08-4.31-5.18-5.09c0,0-5.15-.16-6.64,3.31,0,0-.51,1.51-.32,1.83h2.3s-.34-3.14,3.74-3.2c0,0,3.93,0,3.71,3.17Z"/><path class="cls-3" d="M0,37.92s4.64.71,3.89,4.13c0,0-.56,2.2-3.89,2.43v1.83s5.81-.18,6.23-4.83c0,0,.3-3-3.69-4.71A4.49,4.49,0,0,0,0,36.38Z"/><path class="cls-3" d="M19.8,44.6s-4.66-.54-4-4c0,0,.49-2.22,3.81-2.57l-.07-1.83s-5.8.39-6.06,5c0,0-.18,3.06,3.86,4.57a4.48,4.48,0,0,0,2.55.31Z"/></g></svg>