<svg id="light" xmlns="http://www.w3.org/2000/svg" viewBox="0 0 75.01 75.27"><defs><style>.cls-1{fill:#a3100b;}.cls-2{fill:#fbcc13;}.cls-3{fill:#f8120d;}</style></defs><title>light</title><g id="lamp"><path class="cls-1" d="M25.91,15.57S16.24,16,11,19.3c0,0-7.84,4.47-10.3,12.09,0,0-2.74,8.93,2.61,15.79,0,0,4,5.41,9.45,7.8A28.36,28.36,0,0,0,23,57.59l2.95.21v5.76H29V75.27h2.28v-7.7l1.41,0v7.73H35V67.5l1.34,0v7.73H38.6v-7.7l1.37,0v7.73H42.4v-7.7h1.23v7.7H46V63.56l2.81,0V57.69S59.8,58.11,67,52a20.87,20.87,0,0,0,7.91-12.66S76.68,28,67,21.45c0,0-4.4-3.77-13.19-5.56l-5-.32-.07-5.8H41.63L41.56,0H33.29l.11,9.74-7.52,0Z"/><rect class="cls-2" x="35.41" y="1.72" width="4.08" height="8.02"/><rect class="cls-2" x="28.2" y="11.61" width="18.61" height="3.98"/><path class="cls-3" d="M12.87,20.52S5.12,24.68,2.65,32.1c0,0-1.69,6,.23,9.56,0,0,2.3,6.47,7.08,9.42a24.89,24.89,0,0,0,11.16,4.55l.48.09s-4.51-3-4.67-3.67c0,0-5-6-5.15-10.2,0,0-1.54-8.16.67-12.56,0,0,1.85-5.79,5.81-9.17a13.26,13.26,0,0,1,2.95-2.27,13.88,13.88,0,0,0-4.55,1A28,28,0,0,0,12.87,20.52Z"/><path class="cls-3" d="M62.06,53s7.77-4.12,10.28-11.53c0,0,1.71-6-.19-9.56,0,0-2.27-6.48-7-9.46A24.92,24.92,0,0,0,54,17.85l-.47-.1s4.49,3,4.65,3.7c0,0,5,6,5.09,10.23,0,0,1.5,8.16-.72,12.56,0,0-1.88,5.78-5.86,9.13a13.3,13.3,0,0,1-3,2.26,13.94,13.94,0,0,0,4.56-.94A27.79,27.79,0,0,0,62.06,53Z"/><path class="cls-2" d="M22.38,19.35S16.32,22.57,14,31.54c0,0-2.35,10.35,2.81,16.87,0,0,4.64,7.36,11.62,7.55h5.68s-3.43-3.24-4.13-11L29.51,41V34.44l.19-5.15.79-4.41s1.22-4.59,2-5.3l1.55-2.15H29.27S25,17.37,22.38,19.35Z"/><path class="cls-2" d="M52.67,54s6-3.26,8.36-12.24c0,0,2.28-10.37-2.91-16.85,0,0-4.69-7.33-11.67-7.48l-5.67,0s3.44,3.22,4.19,11l.44,3.94,0,6.56-.16,5.16-.77,4.41s-1.19,4.6-2,5.31L41,56l4.78,0S50.1,56,52.67,54Z"/><path class="cls-3" d="M34.34,20.43s-2.77,7.12-2.82,11.86v9.79s.89,10.17,4.08,12.75c0,0,2.06,2.58,3.66,0,0,0,3.47-5.06,3.84-10.64l.28-4.36v-6l-.23-3.9s-.89-6.23-2.63-9.79c0,0-2.11-3.94-4.31-2.25C36.21,17.85,34.2,19.86,34.34,20.43Z"/></g></svg>