<svg id="money" xmlns="http://www.w3.org/2000/svg" viewBox="0 0 90.05 80.9"><defs><style>.cls-1{fill:#6e0c0b;}.cls-2{fill:#ef180c;}.cls-3{fill:#cb2527;}.cls-4{fill:#f1d433;}.cls-5{fill:#bc3a10;}.cls-6{fill:#f6ab6a;}.cls-7{fill:#f8d442;}.cls-8{fill:#be2c0f;}.cls-9{fill:#f8ab60;}.cls-10{fill:#b20b1a;}.cls-11{fill:#ad0d16;}.cls-12{fill:#7b0f18;}.cls-13{font-size:33px;fill:#ffcf24;font-family:AdobeSongStd-Light-GBpc-EUC-H, Adobe Song Std;opacity:0.88;}</style></defs><title>money</title><g id="rich"><path class="cls-1" d="M0,18.23V68.71s0,4.08,4.12,4.17H7v2H5V77h-1v1.92h1v2H20.16V79.21H21V77.15H20V75h-2V73s6.61.42,6-2L66,70.89s2.6-.21,2.09,2.11L73,73V75h-1V77l-2,0,0,1.95h1v1h1v1H85v-.84h1V79h.91V77H85.1V75h-1V73h2.84s-.59-2.16,2.11-2l1,0V12s-.75-3.81-4-4H84.08V5h2V1H85V0h-13V1H71V5h2V8H70.05s-3.16.54-4.14,2.89H24.14A2.88,2.88,0,0,0,21,9L18.11,9,18,5.89H21V0H4V6H7V9S1.65,8.56,1,11.9L0,12Z"/><polygon class="cls-2" points="6.05 1.04 6.05 5.08 9 5.08 9 8 9 9.86 3.02 9.86 3.02 11.09 1.93 11.09 1.93 68.99 1.93 71 9.84 71 9.84 74.86 9.84 76.9 5.89 76.9 5.89 79.01 20.07 79.01 20.07 76.97 16.07 76.97 16.07 71.03 22.01 71.03 24.09 71.03 24.09 10.92 20.99 10.92 20.99 9.97 16.07 9.97 16.07 5.12 19.9 5.12 19.9 1.04 6.05 1.04"/><polygon class="cls-3" points="7.98 1.88 7.98 3.88 17.96 3.88 17.96 2.06 7.98 1.88"/><polygon class="cls-4" points="10.72 12.96 2.07 12.96 2.07 14.92 23.06 14.92 23.06 12.96 10.72 12.96"/><rect class="cls-5" x="2.07" y="16.93" width="20.99" height="4.01"/><polygon class="cls-6" points="4.04 17.98 2.07 17.98 2.07 20.06 23.06 20.06 23.06 17.98 4.04 17.98"/><rect class="cls-7" x="2.07" y="60.98" width="21.04" height="1.95"/><rect class="cls-8" x="2.07" y="64.96" width="21.04" height="3.98"/><rect class="cls-9" x="2.07" y="65.97" width="21.04" height="2.04"/><polygon class="cls-10" points="10.08 73.12 10.08 75.04 16.07 75.04 16.07 72.93 10.08 72.93 10.08 73.12"/><polygon class="cls-2" points="71.86 1.18 71.86 5.22 74.81 5.22 74.81 8.14 74.81 10 68.84 10 68.84 11.23 67.75 11.23 67.75 69.14 67.75 71.14 75.66 71.14 75.66 75.01 75.66 77.05 71.7 77.05 71.7 79.15 85.89 79.15 85.89 77.11 81.88 77.11 81.88 71.17 87.82 71.17 89.91 71.17 89.91 11.06 86.8 11.06 86.8 10.11 81.88 10.11 81.88 5.26 85.71 5.26 85.71 1.18 71.86 1.18"/><polygon class="cls-3" points="73.79 2.02 73.79 4.03 83.78 4.03 83.78 2.2 73.79 2.02"/><polygon class="cls-4" points="76.53 13.1 67.89 13.1 67.89 15.06 88.88 15.06 88.88 13.1 76.53 13.1"/><rect class="cls-5" x="67.89" y="17.07" width="20.99" height="4.01"/><polygon class="cls-6" points="69.86 18.12 67.89 18.12 67.89 20.2 88.88 20.2 88.88 18.12 69.86 18.12"/><rect class="cls-7" x="67.89" y="61.12" width="21.04" height="1.95"/><rect class="cls-8" x="67.89" y="65.1" width="21.04" height="3.98"/><rect class="cls-9" x="67.89" y="66.11" width="21.04" height="2.04"/><polygon class="cls-10" points="75.89 73.26 75.89 75.18 81.88 75.18 81.88 73.07 75.89 73.07 75.89 73.26"/><polygon class="cls-11" points="27.98 12.96 27.98 14.92 24.09 14.92 24.09 68.95 66.52 68.95 66.52 14.92 64.41 14.92 64.41 13.1 27.98 12.96"/><path class="cls-12" d="M24.52,27s3.84-8,15.79-11h7.74s9.09.61,16.07,9.61l.71,0A19.33,19.33,0,0,0,47.91,14.92l-7.74.14s-11.9,2.09-15.65,9.5Z"/><path class="cls-12" d="M66.08,55S62.2,63,50.24,65.92l-7.74,0s-9.09-.65-16-9.67l-.7,0A19.31,19.31,0,0,0,42.64,66.94l7.74-.11s11.91-2,15.69-9.43Z"/><text class="cls-13" transform="translate(29.02 53.75)">錢</text></g></svg>