<svg id="Tici" xmlns="http://www.w3.org/2000/svg" viewBox="0 0 73.12 62.44"><defs><style>.cls-1{fill:#a3100b;}.cls-2{fill:#fff;}
</style></defs><title>tici</title><ellipse id="bigcircle" class="cls-1" cx="36.56" cy="31.22" rx="36.56" ry="31.22"/><path id="whiteside" class="cls-2" d="M47.56,4.36s13.22,15.18-6.47,25.31c0,0-18.28,3.09-20,17.72,0,0,1.41,8.15,4.5,10.4,0,0-.32.47,1.32.85,0,0,10.59,2.67,20.15-.24,0,0,10-1.45,19-11.86A24.37,24.37,0,0,0,70.3,25s-2-8.81-11.63-15.09C58.67,9.89,51.55,4.92,47.56,4.36Z"/><path id="redcircle" class="cls-1" d="M42.05,46.26a5.23,5.23,0,0,1-5.49,4.92,5.22,5.22,0,0,1-5.48-4.92,5.22,5.22,0,0,1,5.48-4.92A5.23,5.23,0,0,1,42.05,46.26Z"/><path id="leftcircle" class="cls-2" d="M37.22,15.83a5.23,5.23,0,0,1-5.49,4.92,5.22,5.22,0,0,1-5.48-4.92,5.22,5.22,0,0,1,5.48-4.92A5.23,5.23,0,0,1,37.22,15.83Z"/></svg>